HIERARCHY
ROOT root     
{
	OFFSET 0.0000 0.0000 0.0000
	CHANNELS 6 Xposition Yposition Zposition Zrotation Yrotation Xrotation
	JOINT pelvis   
	{
		OFFSET 0.0000 0.0000 0.0000
		CHANNELS 3 Zrotation Yrotation Xrotation
		JOINT thorax   
		{
			OFFSET 0.0000 23.0750 -5.0000
			CHANNELS 3 Zrotation Yrotation Xrotation
			JOINT rclavicle
			{
				OFFSET 0.0000 28.0009 0.0000
				CHANNELS 3 Zrotation Yrotation Xrotation
				JOINT rhumerus 
				{
					OFFSET -18.5725 5.5939 0.0000
					CHANNELS 3 Zrotation Yrotation Xrotation
					JOINT rradius  
					{
						OFFSET -24.8459 0.0000 0.0000
						CHANNELS 3 Zrotation Yrotation Xrotation
						JOINT rhand    
						{
							OFFSET -24.5477 0.0000 0.0000
							CHANNELS 3 Zrotation Yrotation Xrotation
							End Site
							{
								OFFSET -8.1826 0.0000 0.0000
							}
						}
					}
				}
			}
			JOINT lclavicle
			{
				OFFSET 0.0000 28.0009 0.0000
				CHANNELS 3 Zrotation Yrotation Xrotation
				JOINT lhumerus 
				{
					OFFSET 18.5725 5.5939 0.0000
					CHANNELS 3 Zrotation Yrotation Xrotation
					JOINT lradius  
					{
						OFFSET 24.8459 0.0000 0.0000
						CHANNELS 3 Zrotation Yrotation Xrotation
						JOINT lhand    
						{
							OFFSET 24.5477 0.0000 0.0000
							CHANNELS 3 Zrotation Yrotation Xrotation
							End Site
							{
								OFFSET 8.1826 0.0000 0.0000
							}
						}
					}
				}
			}
			JOINT head     
			{
				OFFSET 0.0000 35.2030 0.0000
				CHANNELS 3 Zrotation Yrotation Xrotation
				End Site
				{
					OFFSET 0.0000 11.7343 0.0000
				}
			}
		}
		JOINT rfemur   
		{
			OFFSET -8.2817 0.0000 0.0000
			CHANNELS 3 Zrotation Yrotation Xrotation
			JOINT rtibia   
			{
				OFFSET 0.0000 -43.3627 0.0000
				CHANNELS 3 Zrotation Yrotation Xrotation
				JOINT rfoot    
				{
					OFFSET 0.0000 -38.2947 0.0000
					CHANNELS 3 Zrotation Yrotation Xrotation
					JOINT rtoes    
					{
						OFFSET 0.0000 0.0000 16.6054
						CHANNELS 3 Zrotation Yrotation Xrotation
						End Site
						{
							OFFSET 0.0000 0.0000 5.5351
						}
					}
				}
			}
		}
		JOINT lfemur   
		{
			OFFSET 8.2817 0.0000 0.0000
			CHANNELS 3 Zrotation Yrotation Xrotation
			JOINT ltibia   
			{
				OFFSET 0.0000 -43.3627 0.0000
				CHANNELS 3 Zrotation Yrotation Xrotation
				JOINT lfoot    
				{
					OFFSET 0.0000 -38.2947 0.0000
					CHANNELS 3 Zrotation Yrotation Xrotation
					JOINT ltoes    
					{
						OFFSET 0.0000 0.0000 16.6054
						CHANNELS 3 Zrotation Yrotation Xrotation
						End Site
						{
							OFFSET 0.0000 0.0000 5.5351
						}
					}
				}
			}
		}
	}
}
MOTION
Frames: 11
Frame Time: .0333333
147.65 70.43 13.712 -31.0256 -89.7365 64.2574 0 -0 0 -10.8069 7.51659 18.2606 13.0564 -11.8909 -4.36662e-05 39.4433 2.7261 14.2276 -180 69.5221 -180 4.72684 5.30125 0.219005 -11.47 20.2049 9.71536e-05 -51.5097 29.4843 17.1437 2.04977e-06 -87.095 -2.15652e-06 -14.5616 -1.26083 0.161103 7.78028 -7.98001 -18.1745 3.09811 -5.11099 -8.41574 -0 -0 43.036 9.98473e-10 2.37429 -0.0217997 -0.0009 -1.79748e-09 -80.3745 -11.9098 5.00105 -87.4282 -0 -0 61.9305 -3.64204e-07 10.2664 -0.500896 -0.090699 -5.95693e-07 -18.4555 
146.3 70.343 13.628 -3.80247 -88.6865 37.1141 0 -0 0 -10.5823 6.80791 18.3667 13.2457 -11.6253 -5.0821e-05 40.3349 2.42371 13.7537 -180 69.7165 -180 4.84606 5.34986 0.2265 -12.3638 19.875 3.94522e-05 -51.3166 28.0931 16.4997 2.90557e-06 -86.4784 -3.09047e-06 -14.3461 -1.0744 0.135203 7.75027 -8.12513 -18.2602 3.6186 -5.17562 -8.61296 -0 -0 44.4273 -1.4284e-06 1.7284 1.63062 0.0492013 2.25791e-07 -78.7788 -11.3031 4.22567 -87.164 -0 -0 63.1993 -7.64461e-07 10.3467 -1.21851 -0.222403 1.4934e-06 -16.3842 
144.99 70.308 13.623 0.162559 -88.6122 33.1377 0 -0 0 -10.982 6.84831 18.4673 13.5448 -11.3354 9.56981e-05 41.4166 2.25222 13.2484 -180 70.0767 -180 4.9506 5.37945 0.232701 -13.1568 19.5451 5.3017e-05 -51.1963 26.5159 15.7536 3.97817e-06 -85.8123 -4.28022e-06 -14.0903 -0.858492 0.1061 7.83173 -8.19156 -18.3749 3.57612 -4.65542 -9.17158 -0 -0 46.4509 -1.99497e-07 0.806105 2.80551 0.0395006 1.1631e-07 -76.6585 -11.2765 4.18361 -86.8104 -0 -0 64.3814 -2.53062e-06 10.4978 -2.26689 -0.4199 -1.42369e-07 -14.3513 
143.7 70.304 13.628 3.27661 -88.5145 30.088 0 -0 0 -11.3831 6.8566 18.5434 13.8564 -11.0135 4.30514e-05 42.634 2.14255 12.758 -180 70.602 -180 5.05433 5.39595 0.2383 -14.0129 19.216 6.9341e-05 -51.0815 24.8665 14.9024 0 -85.1612 0 -13.7951 -0.623504 0.0753981 7.87913 -8.16796 -18.4491 3.52979 -4.22452 -10.0151 -0 -0 48.7903 -4.72408e-07 -0.500102 3.57168 -0.0312 -6.33508e-07 -74.041 -11.2559 4.16257 -86.416 -0 -0 65.4318 -2.71064e-06 10.7317 -3.35634 -0.635699 1.45987e-06 -12.6377 
142.46 70.332 13.641 5.83238 -88.4769 27.6232 0 -0 0 -11.7815 6.82342 18.6033 14.1785 -10.6604 -8.11391e-05 43.9797 2.08535 12.2776 -180 71.2782 -180 5.16711 5.41142 0.244402 -14.9181 18.8804 6.03636e-05 -50.9946 23.1747 13.9236 2.61795e-06 -84.5456 -2.87968e-06 -13.4729 -0.377198 0.0446014 7.89294 -8.05008 -18.4977 3.47587 -3.90029 -11.1247 -0 -0 51.3945 7.61839e-07 -2.17659 3.91415 -0.148701 -7.48948e-07 -70.9772 -11.2306 4.16041 -85.9943 -0 -0 66.3608 -1.36493e-06 11.0314 -4.4368 -0.863993 3.44806e-07 -11.3554 
141.24 70.39 13.659 7.67013 -88.5182 25.8752 0 -0 0 -12.1557 6.74398 18.6619 14.501 -10.2881 2.16692e-05 45.4444 2.08117 11.8025 -180 72.1074 -180 5.29455 5.43934 0.2517 -15.8413 18.5505 -6.56212e-05 -50.9647 21.4293 12.8277 -2.12617e-06 -83.9433 1.91244e-06 -13.1264 -0.133404 0.0153 7.87059 -7.84101 -18.5403 3.42408 -3.68934 -12.4683 -0 -0 54.1962 -2.38539e-06 -4.17957 3.85093 -0.281198 -4.47812e-06 -67.4726 -11.1832 4.17935 -85.5467 -0 -0 67.1855 4.42809e-06 11.3737 -5.47365 -1.09929 1.54286e-07 -10.552 
140.06 70.476 13.682 8.80247 -88.5388 24.8748 0 -0 0 -12.4981 6.61315 18.7311 14.8237 -9.89555 1.93094e-07 47.0132 2.11477 11.3235 -180 73.076 -180 5.4373 5.48692 0.260702 -16.7656 18.212 -4.44293e-05 -51.0104 19.6604 11.6095 -1.37796e-06 -83.351 1.22676e-06 -12.7563 0.1027 -0.0115003 7.8128 -7.54529 -18.5829 3.37448 -3.59743 -14.0164 -0 -0 57.1315 -9.45002e-07 -6.42277 3.4084 -0.383408 2.25631e-06 -63.4751 -11.1114 4.21839 -85.0794 -0 -0 67.9154 1.98184e-05 11.7354 -6.44666 -1.3362 -5.72889e-06 -10.2198 
138.9 70.589 13.709 9.12125 -88.6093 24.6758 0 -0 0 -12.7944 6.43008 18.8215 15.1404 -9.48509 -1.95113e-05 48.6698 2.17064 10.8319 -180 74.1748 -180 5.59005 5.55797 0.271595 -17.669 17.8487 0.000128528 -51.1472 17.8937 10.2731 0 -82.7981 0 -12.3575 0.326299 -0.0352996 7.72108 -7.17315 -18.6275 3.33065 -3.61914 -15.7386 -0 -0 60.1363 1.98882e-06 -8.79511 2.62151 -0.405502 2.60581e-07 -58.9209 -11.0134 4.27967 -84.5873 -0 -0 68.5612 -3.04251e-05 12.0954 -7.35089 -1.57045 5.00467e-06 -10.3009 
137.77 70.724 13.737 8.23937 -88.6567 25.6917 0 -0 0 -13.03 6.19739 18.9401 15.4457 -9.06082 5.78269e-05 50.3963 2.23582 10.3232 -180 75.3957 -180 5.74086 5.65326 0.283703 -18.5303 17.452 3.16615e-05 -51.3895 16.1431 8.83783 2.08941e-06 -82.2744 -2.39196e-06 -11.9245 0.535098 -0.0559003 7.59451 -6.73777 -18.6732 3.30204 -3.73992 -17.6044 -0 -0 63.1511 2.49976e-06 -11.1708 1.53589 -0.303291 -3.25383e-06 -53.8067 -10.8884 4.36704 -84.0699 -0 -0 69.1308 -9.3459e-06 12.432 -8.19456 -1.79966 3.92316e-06 -10.7028 
136.65 70.877 13.766 5.80138 -88.7287 28.2361 0 -0 0 -13.193 5.91929 19.0932 15.7345 -8.63005 3.17043e-05 52.1732 2.30049 9.79906 -180 76.7351 -180 5.86923 5.7694 0.295995 -19.323 17.0256 -6.35304e-05 -51.741 14.4104 7.34325 0 -81.7794 0 -11.4462 0.727804 -0.072899 7.43589 -6.25363 -18.7093 3.29363 -3.94098 -19.5864 -0 -0 66.1239 9.32919e-07 -13.4196 0.203695 -0.0486005 1.87254e-07 -48.1873 -10.7406 4.48489 -83.5213 -0 -0 69.6322 -1.6199e-05 12.7334 -8.99405 -2.02324 -5.57075e-06 -11.3157 
135.55 71.044 13.794 1.45972 -88.8177 32.6507 0 -0 0 -13.2766 5.60131 19.2771 16.0038 -8.19869 -2.21705e-05 53.9744 2.35381 9.26404 -180 78.1759 -180 5.95089 5.89852 0.306907 -20.0276 16.5662 4.52028e-05 -52.1988 12.708 5.82722 -2.14174e-06 -81.3013 1.839e-06 -10.9144 0.904607 -0.0863992 7.24728 -5.73575 -18.7236 3.31189 -4.20032 -21.6609 -0 -0 69.0114 -1.29022e-05 -15.4246 -1.31425 0.362599 -9.67153e-07 -42.194 -10.5748 4.63734 -82.9352 -0 -0 70.0722 -4.59414e-05 12.9917 -9.77033 -2.24195 1.33311e-05 -12.0266 
